<svg version={1.0} xmlns="http://www.w3.org/2000/svg" width="24px" height="24px" viewBox="0 0 256.000000 256.000000" preserveAspectRatio="xMidYMid meet">
  <g transform="translate(0.000000,256.000000) scale(0.100000,-0.100000)" fill="#000000" stroke="none">
    <path d="M1470 2307 c-26 -8 -132 -107 -428 -401 l-392 -391 512 -512 513
-513 384 383 c273 272 389 394 403 425 26 57 26 147 0 204 -14 31 -124 147
-398 420 -411 408 -399 399 -509 397 -27 -1 -66 -6 -85 -12z" />
    <path d="M383 1248 c-177 -177 -194 -204 -194 -298 -1 -101 20 -132 238 -352
l197 -198 -252 0 c-239 0 -253 -1 -272 -20 -27 -27 -27 -93 0 -120 20 -20 33
-20 1140 -20 1107 0 1120 0 1140 20 27 27 27 93 0 120 -19 19 -33 20 -422 20
l-403 0 -505 505 -505 505 -162 -162z" />
  </g>
</svg>
